# xmcd
#
# Track frame offsets:
#	210
#	16882
#	32652
#	48461
#	61507
#	80182
#	91962
#	107434
#	117281
#	131914
#	148109
#	159603
#	172876
#	189615
#	201878
#	218148
#	234539
#	249099
#
# Disc length: 3537 seconds
#
# Revision: 0
# Processed by: cddbd v1.5.2PL0 Copyright (c) Steve Scherf et al.
# Submitted via: dBpowerAMP V4.0
#
DISCID=f20dcf12
DTITLE=Kupido - Was ek maar 'n Digter
DYEAR=1996
DGENRE=Country
TTITLE0=Was ek maar 'n digter
TTITLE1=Kom sê my weer
TTITLE2=Waarom kla ons gedurig
TTITLE3=Elke draai van die wiel
TTITLE4=Speelgoed
TTITLE5=Glimlag
TTITLE6=Want ek is lief vir jou
TTITLE7=Mollige nooi
TTITLE8=Miskien
TTITLE9=Ek is 'n gewone man
TTITLE10=Sy's die Bossiekop
TTITLE11=Warm country hart
TTITLE12=Vir altyd
TTITLE13=Ek mis jou
TTITLE14=Lady
TTITLE15=Vanaand verlang ek
TTITLE16=Kom saam
TTITLE17=Jy is hier by my
EXTD=
EXTT0=
EXTT1=
EXTT2=
EXTT3=
EXTT4=
EXTT5=
EXTT6=
EXTT7=
EXTT8=
EXTT9=
EXTT10=
EXTT11=
EXTT12=
EXTT13=
EXTT14=
EXTT15=
EXTT16=
EXTT17=
PLAYORDER=
